<?xml version="1.0" encoding="utf-8"?>
<svg width="25" height="25" version="1.1" id="infographic-element-2" xmlns="http://www.w3.org/2000/svg" xmlns:xlink="http://www.w3.org/1999/xlink"
	 x="0px" y="0px" viewBox="0 0 1010 1010" enable-background="new 0 0 1010 1010" xml:space="preserve">
<g id="infographic-element-2-infographic-element-2">
	<path  d="M926.2441,83.7969C872.2422,29.7339,800.3848,0,724.0059,0c-68.4258,0-133.8536,24.2061-185.5118,68.3032
		c52.2549,60.4947,80.92,137.2642,80.92,217.732c0,80.4267-28.6446,157.2373-80.92,217.7324
		c51.6582,44.0556,117.086,68.2617,185.5118,68.2617c76.3789,0,148.2363-29.7539,202.2382-83.7559
		C1037.7812,376.7363,1037.7812,195.293,926.2441,83.7969z"/>
	<path d="M926.2441,926.2236C980.2461,872.2227,1010,800.4258,1010,724.0059
		c0-68.4063-24.165-133.8321-68.2832-185.4707c-60.4531,52.2343-137.3252,80.8789-217.7109,80.8789
		c-80.4473,0-157.3194-28.6446-217.7525-80.8789c-44.1177,51.6386-68.2827,117.0644-68.2827,185.4707
		c0,76.4199,29.7749,148.2168,83.7969,202.2177C575.7891,980.3076,647.627,1010,724.0059,1010S872.2422,980.3076,926.2441,926.2236z
		"/>
	<path d="M285.9941,438.0117c-76.3789,0-148.1753,29.7544-202.1972,83.7559C29.7544,575.7891,0,647.627,0,724.0059
		c0,76.4199,29.7544,148.2168,83.7969,202.2177C137.8188,980.3076,209.6152,1010,285.9941,1010
		c68.4678,0,133.8736-24.124,185.5118-68.2617c-52.2549-60.4746-80.92-137.3057-80.92-217.7324
		c0-80.4063,28.6651-157.2579,80.92-217.752C419.8677,462.1768,354.4619,438.0117,285.9941,438.0117z"/>
	<path d="M68.2827,471.5059c60.4536-52.2344,137.3052-80.8789,217.7114-80.8789
		c80.4473,0,157.2989,28.6445,217.7525,80.8789c44.1382-51.6382,68.2827-117.044,68.2827-185.4707
		c0-76.3995-29.7539-148.2164-83.7559-202.2383C434.2104,29.7339,362.4141,0,285.9941,0
		C209.6152,0,137.8188,29.7339,83.7969,83.7969C31.2544,136.3188,1.5205,206.2451,0.1851,280.7129
		C-1.1304,351.1738,23.0142,418.4497,68.2827,471.5059z"/>
</g>
</svg>
