<?xml version="1.0" encoding="utf-8"?>
<!-- Generator: Adobe Illustrator 17.1.0, SVG Export Plug-In . SVG Version: 6.00 Build 0)  -->
<!DOCTYPE svg PUBLIC "-//W3C//DTD SVG 1.1//EN" "http://www.w3.org/Graphics/SVG/1.1/DTD/svg11.dtd">
<svg version="1.1" id="infographic-element-1" xmlns="http://www.w3.org/2000/svg" xmlns:xlink="http://www.w3.org/1999/xlink"
	 x="0px" y="0px" viewBox="0 0 1010 1010" enable-background="new 0 0 1010 1010" xml:space="preserve">
<g id="infographic-element-1-infographic-element-1">
	<path d="M945.8887,658.9062c7.7324-33.456,11.875-67.5429,11.875-101.6699
		c0-158.3652-80.7012-302.6059-215.7285-385.7534c-8.2462-5.0698-18.9581-2.5054-23.9883,5.6616
		c-5.0303,8.2256-2.4854,18.9175,5.7207,24.0069c124.6914,76.7563,199.1396,209.8711,199.1396,356.0849
		c0,30.1016-3.4521,60.126-9.9424,89.6758c-8.0283-1.7353-16.3535-2.6035-24.8554-2.6035
		c-67.208,0-121.8906,54.6816-121.8906,121.9102c0,67.1894,54.6826,121.9101,121.8906,121.9101
		c67.1894,0,121.8906-54.7207,121.8906-121.9101C1010,719.9404,984.04,679.5801,945.8887,658.9062"/>
	<path  d="M664.7266,943.5215C613.9502,964.5098,560.2344,975.2021,505,975.2021
		c-111.1885,0-218.1655-44.8583-296.3423-123.5283c21.6992-22.0136,35.1333-52.1953,35.1333-85.455
		c0-67.2286-54.6919-121.9102-121.9004-121.9102S0,698.9902,0,766.2188c0,67.1894,54.6821,121.9101,121.8906,121.9101
		c21.3242,0,41.396-5.5625,58.854-15.2285C265.707,960.1309,382.9619,1010,505,1010c59.791,0,118.0039-11.5205,173.0215-34.3242
		c8.8769-3.6699,13.0986-13.8477,9.4101-22.7246C683.8018,944.0342,673.6035,939.8516,664.7266,943.5215"/>
	<path  d="M69.6548,543.5449c0.4043,0.0401,0.8086,0.0401,1.2129,0.0401c9.0844,0,16.7182-6.9834,17.3594-16.1758
		c12.4082-175.7046,132.1088-322.5293,299.8735-371.1553c14.8935,50.5195,61.6059,87.5269,116.8994,87.5269
		c67.1895,0,121.8906-54.6822,121.8906-121.8907S572.1895,0,505,0c-67.0703,0-121.624,54.4453-121.8901,121.4561
		C198.8638,172.7651,67.0508,332.9448,53.4888,524.9629C52.8179,534.5508,60.0576,542.875,69.6548,543.5449"/>
</g>
</svg>
