<svg width="21" height="20" viewBox="0 0 21 20" fill="none" xmlns="http://www.w3.org/2000/svg">
<path d="M4.50627 0.750084L4.5063 0.750084C5.3572 0.742935 6.36128 1.1942 7.37432 1.94213C8.36868 2.67626 9.27412 3.62414 9.90757 4.4401L10.4975 
5.19995L11.0905 4.44258C11.7061 3.65644 12.6123 2.71167 13.6132 1.9709C14.634 1.21535 15.6483 0.75011 16.5 0.75011C18.5754 0.75011 20.25 2.69984 
20.25 5.02365C20.25 5.66607 20.1743 6.20664 19.9807 6.74703C19.7862 7.28991 19.4596 7.8689 18.9141 8.57063L10.5012 18.8167L2.09775 8.53997C1.08269 7.09552 0.75 
6.2182 0.75 5.02365C0.75 2.6981 2.35722 0.768041 4.50627 0.750084Z" stroke="currentColor" stroke-width="2"/>
</svg>
