<svg viewBox="0 0 27 20" fill="none" xmlns="http://www.w3.org/2000/svg">
<path d="M5.82949 1.00008C6.9235 0.992935 8.2145 1.4442 9.51698 2.19213C10.7954 2.92626 11.9596 3.87414 12.774 4.6901L13.5325 5.44995L14.2949 4.69258C15.0864 3.90644 16.2515 2.96167 17.5384 
2.2209C18.8509 1.46535 20.155 1.00011 21.25 1.00011C23.9184 1.00011 26.0714 2.94984 26.0714 5.27365C26.0714 5.91607 25.9741 6.45664 25.7252 6.99703C25.4751 7.53991 25.0552 8.1189 24.3538 8.82063L13.5373 
19.0667L2.73282 8.78997C1.42774 7.34552 1 6.4682 1 5.27365C1 2.9481 3.06643 1.01804 5.82949 1.00008Z" stroke="currentColor" stroke-width="1.5"/>
</svg>
