<svg width="16" height="16" viewBox="0 0 16 16" fill="none" xmlns="http://www.w3.org/2000/svg">
<path d="M0 15C0 14.7643 0.0766255 14.5 0.213013 14.3333C0.349401 14.1666 0.53439 14 0.727273 14H15.2727C15.4656 
14 15.6506 14.1666 15.787 14.3333C15.9234 14.5 16 14.7643 16 15C16 15.2357 15.9234 15.5 15.787 15.6667C15.6506 
15.8334 15.4656 16 15.2727 16H0.727273C0.53439 16 0.349401 15.812 0.213013 15.6453C0.0766255 
15.4786 0 15.2357 0 15Z" />
<path d="M5.08626e-06 8.16667C5.08626e-06 7.93092 0.0766306 7.6667 0.213018 7.5C0.349406 7.3333 0.534395 7.16667 
0.727278 7.16667H15.2727C15.4656 7.16667 15.6506 7.3333 15.787 7.5C15.9234 7.6667 16 7.93092 16 8.16667C16 8.40241 
15.9234 8.66664 15.787 8.83333C15.6506 9.00003 15.4656 9.16667 15.2727 9.16667H0.727278C0.534395 9.16667 0.349406 
8.97869 0.213018 8.812C0.0766306 8.6453 5.08626e-06 8.40241 5.08626e-06 8.16667Z" />
<path d="M0 1C0 0.764255 0.0766255 0.50003 0.213013 0.333333C0.349401 0.166637 0.53439 0 0.727273 0H15.2727C15.4656 
0 15.6506 0.166637 15.787 0.333333C15.9234 0.50003 16 0.764255 16 1C16 1.23575 15.9234 1.49997 15.787 1.66667C15.6506 
1.83336 15.4656 2 15.2727 2H0.727273C0.53439 2 0.349401 1.81203 0.213013 1.64533C0.0766255 1.47863 0 1.23575 
0 1Z" />
</svg>
