<svg width="1814" height="1812" viewBox="0 0 1814 1812" fill="none" xmlns="http://www.w3.org/2000/svg">
<g clip-path="url(#clip0_1_2)">
<path d="M1776.38 835.499L1477.34 536.463C1439.85 498.973 1379.07 498.973 1341.58 536.463L1042.51 835.527C1005.02 873.017 1005.02 933.801 1042.51 971.291L1341.55 1270.33C1379.04 1307.82 1439.82 1307.82 1477.31 1270.33L1776.38 971.263C1813.87 933.773 1813.87 872.989 1776.38 835.499Z" fill="#FA00FF" style="mix-blend-mode:lighten"/>
<path d="M1776.38 835.499L1477.34 536.463C1439.85 498.973 1379.07 498.973 1341.58 536.463L1042.51 835.527C1005.02 873.017 1005.02 933.801 1042.51 971.291L1341.55 1270.33C1379.04 1307.82 1439.82 1307.82 1477.31 1270.33L1776.38 971.263C1813.87 933.773 1813.87 872.989 1776.38 835.499Z" stroke="black" stroke-width="10"/>
<path d="M906.5 830L929.737 894.607H1004.93L944.099 934.536L967.336 999.143L906.5 959.214L845.664 999.143L868.901 934.536L808.066 894.607H883.263L906.5 830Z" fill="#FAFF00"/>
<path d="M1273.04 339.21L974.006 40.1748C938.469 4.63707 880.851 4.63707 845.313 40.1748L546.249 339.238C510.712 374.776 510.712 432.394 546.249 467.932L845.285 766.967C880.822 802.505 938.44 802.505 973.978 766.967L1273.04 467.904C1308.58 432.366 1308.58 374.748 1273.04 339.21Z" fill="#67BAEB"/>
<path d="M1772.84 839.034L1473.81 539.999C1438.27 504.461 1380.65 504.461 1345.11 539.999L1046.05 839.062C1010.51 874.6 1010.51 932.218 1046.05 967.756L1345.08 1266.79C1380.62 1302.33 1438.24 1302.33 1473.78 1266.79L1772.84 967.728C1808.38 932.19 1808.38 874.572 1772.84 839.034Z" fill="#E419D0"/>
<path d="M771.458 840.775L472.423 541.739C434.932 504.249 374.148 504.249 336.658 541.739L37.5944 840.803C0.104016 878.293 0.104027 939.077 37.5944 976.567L336.63 1275.6C374.12 1313.09 434.904 1313.09 472.394 1275.6L771.458 976.539C808.948 939.049 808.948 878.265 771.458 840.775Z" fill="#20FF1C" stroke="black" stroke-width="10"/>
<path d="M1267.72 1344.13L968.687 1045.1C933.149 1009.56 875.531 1009.56 839.994 1045.1L540.93 1344.16C505.392 1379.7 505.392 1437.32 540.93 1472.86L839.965 1771.89C875.503 1807.43 933.121 1807.43 968.659 1771.89L1267.72 1472.83C1303.26 1437.29 1303.26 1379.67 1267.72 1344.13Z" fill="#67BAEB"/>
<path d="M1276.58 335.675L977.542 36.6392C940.052 -0.851086 879.268 -0.851086 841.777 36.6392L542.714 335.703C505.223 373.193 505.223 433.977 542.714 471.467L841.749 770.503C879.239 807.993 940.023 807.993 977.514 770.503L1276.58 471.439C1314.07 433.949 1314.07 373.165 1276.58 335.675Z" fill="#0EC3FD" stroke="black" stroke-width="10"/>
<path d="M1271.26 1340.6L972.223 1041.56C934.732 1004.07 873.948 1004.07 836.458 1041.56L537.394 1340.63C499.904 1378.12 499.904 1438.9 537.394 1476.39L836.43 1775.43C873.92 1812.92 934.704 1812.92 972.194 1775.43L1271.26 1476.36C1308.75 1438.87 1308.75 1378.09 1271.26 1340.6Z" fill="#DE2C2C" stroke="black" stroke-width="10"/>
<path d="M950.5 767L651.4 467.9C642.937 459.456 636.223 449.426 631.641 438.384C627.06 427.342 624.702 415.505 624.702 403.55C624.702 391.595 627.06 379.758 631.641 368.716C636.223 357.674 642.937 347.644 651.4 339.2L950.5 40.1C954.112 36.4741 958.026 33.1621 962.2 30.2C944.678 17.7955 923.334 11.9856 901.942 13.7973C880.55 15.6089 860.487 24.9255 845.3 40.1L546.2 339.2C529.157 356.279 519.585 379.422 519.585 403.55C519.585 427.678 529.157 450.821 546.2 467.9L845.3 767C860.487 782.175 880.55 791.491 901.942 793.303C923.334 795.114 944.678 789.305 962.2 776.9C958.026 773.938 954.112 770.626 950.5 767Z" fill="#46A1F8"/>
<path d="M1450.3 1266.8L1151.2 967.7C1142.74 959.256 1136.02 949.226 1131.44 938.184C1126.86 927.142 1124.5 915.305 1124.5 903.35C1124.5 891.395 1126.86 879.558 1131.44 868.516C1136.02 857.474 1142.74 847.444 1151.2 839L1450.3 539.9C1453.91 536.274 1457.83 532.962 1462 530C1444.48 517.596 1423.13 511.786 1401.74 513.597C1380.35 515.409 1360.29 524.725 1345.1 539.9L1046 839C1028.96 856.079 1019.38 879.222 1019.38 903.35C1019.38 927.478 1028.96 950.621 1046 967.7L1345.1 1266.8C1360.29 1281.97 1380.35 1291.29 1401.74 1293.1C1423.13 1294.91 1444.48 1289.1 1462 1276.7C1457.83 1273.74 1453.91 1270.43 1450.3 1266.8Z" fill="#AD06C8"/>
<path d="M445.4 1272.1L146.3 973C137.837 964.556 131.123 954.526 126.541 943.484C121.96 932.442 119.602 920.605 119.602 908.65C119.602 896.695 121.96 884.858 126.541 873.816C131.123 862.774 137.837 852.744 146.3 844.3L445.4 545.2C449.012 541.574 452.926 538.262 457.1 535.3C439.578 522.896 418.234 517.086 396.842 518.897C375.45 520.709 355.387 530.025 340.2 545.2L41.1 844.3C24.0567 861.379 14.4848 884.522 14.4848 908.65C14.4848 932.778 24.0567 955.921 41.1 973L340.2 1272.1C355.387 1287.27 375.45 1296.59 396.842 1298.4C418.234 1300.21 439.578 1294.4 457.1 1282C452.926 1279.04 449.012 1275.73 445.4 1272.1Z" fill="#08A718"/>
<path d="M945.2 1771.9L646.1 1472.8C637.637 1464.36 630.923 1454.33 626.341 1443.28C621.76 1432.24 619.402 1420.4 619.402 1408.45C619.402 1396.5 621.76 1384.66 626.341 1373.62C630.923 1362.57 637.637 1352.54 646.1 1344.1L945.2 1045C948.812 1041.37 952.726 1038.06 956.9 1035.1C939.378 1022.7 918.034 1016.89 896.642 1018.7C875.25 1020.51 855.187 1029.83 840 1045L540.9 1344.1C523.857 1361.18 514.285 1384.32 514.285 1408.45C514.285 1432.58 523.857 1455.72 540.9 1472.8L840 1771.9C855.187 1787.07 875.25 1796.39 896.642 1798.2C918.034 1800.01 939.378 1794.2 956.9 1781.8C952.726 1778.84 948.812 1775.53 945.2 1771.9V1771.9Z" fill="#B50909"/>
<path d="M272.4 1054.4C268.457 1054.36 264.614 1053.15 261.35 1050.94C258.086 1048.73 255.544 1045.61 254.041 1041.96C252.538 1038.32 252.14 1034.31 252.898 1030.44C253.655 1026.57 255.534 1023.01 258.3 1020.2L481.6 796.9C485.353 793.147 490.443 791.039 495.75 791.039C501.057 791.039 506.147 793.147 509.9 796.9C513.653 800.653 515.761 805.743 515.761 811.05C515.761 816.357 513.653 821.447 509.9 825.2L286.6 1048.5C284.739 1050.37 282.527 1051.86 280.09 1052.87C277.653 1053.88 275.039 1054.4 272.4 1054.4Z" fill="#08A718"/>
<path d="M495.7 1054.4C493.077 1054.39 490.481 1053.87 488.061 1052.86C485.641 1051.85 483.445 1050.36 481.6 1048.5L258.3 825.2C254.547 821.447 252.439 816.357 252.439 811.05C252.439 805.743 254.547 800.653 258.3 796.9C262.053 793.147 267.143 791.039 272.45 791.039C277.757 791.039 282.847 793.147 286.6 796.9L509.9 1020.2C512.672 1023.02 514.552 1026.59 515.306 1030.47C516.06 1034.34 515.654 1038.36 514.139 1042.01C512.624 1045.66 510.067 1048.78 506.787 1050.98C503.508 1053.19 499.651 1054.38 495.7 1054.4V1054.4Z" fill="#08A718"/>
<path d="M292.9 1040.3C290.274 1040.32 287.671 1039.8 285.248 1038.79C282.825 1037.78 280.632 1036.28 278.8 1034.4C276.943 1032.55 275.47 1030.35 274.465 1027.93C273.46 1025.51 272.943 1022.92 272.943 1020.3C272.943 1017.68 273.46 1015.09 274.465 1012.67C275.47 1010.25 276.943 1008.05 278.8 1006.2L502.1 782.9C503.952 781.048 506.15 779.58 508.569 778.577C510.988 777.575 513.581 777.06 516.2 777.06C518.819 777.06 521.412 777.575 523.831 778.577C526.25 779.58 528.448 781.048 530.3 782.9C532.152 784.752 533.62 786.95 534.623 789.369C535.625 791.788 536.14 794.381 536.14 797C536.14 799.619 535.625 802.212 534.623 804.631C533.62 807.05 532.152 809.248 530.3 811.1L307 1034.4C305.155 1036.26 302.959 1037.75 300.539 1038.76C298.119 1039.77 295.523 1040.29 292.9 1040.3V1040.3Z" fill="#4D4C78"/>
<path d="M516.2 1040.3C513.574 1040.32 510.971 1039.8 508.548 1038.79C506.125 1037.78 503.932 1036.28 502.1 1034.4L278.8 811.1C275.06 807.36 272.96 802.289 272.96 797C272.96 791.711 275.06 786.64 278.8 782.9C282.54 779.16 287.611 777.06 292.9 777.06C298.189 777.06 303.26 779.16 307 782.9L530.3 1006.2C532.181 1008.04 533.675 1010.23 534.696 1012.65C535.716 1015.07 536.242 1017.67 536.242 1020.3C536.242 1022.93 535.716 1025.53 534.696 1027.95C533.675 1030.37 532.181 1032.56 530.3 1034.4C528.468 1036.28 526.275 1037.78 523.852 1038.79C521.429 1039.8 518.826 1040.32 516.2 1040.3Z" fill="#4D4C78"/>
<path d="M1041.8 1442.5H726C720.696 1442.5 715.609 1440.39 711.858 1436.64C708.107 1432.89 706 1427.8 706 1422.5C706 1417.2 708.107 1412.11 711.858 1408.36C715.609 1404.61 720.696 1402.5 726 1402.5H1041.8C1047.1 1402.5 1052.19 1404.61 1055.94 1408.36C1059.69 1412.11 1061.8 1417.2 1061.8 1422.5C1061.8 1427.8 1059.69 1432.89 1055.94 1436.64C1052.19 1440.39 1047.1 1442.5 1041.8 1442.5Z" fill="#B50909"/>
<path d="M1062.2 1428.4H746.5C741.196 1428.4 736.109 1426.29 732.358 1422.54C728.607 1418.79 726.5 1413.7 726.5 1408.4C726.5 1403.1 728.607 1398.01 732.358 1394.26C736.109 1390.51 741.196 1388.4 746.5 1388.4H1062.2C1067.5 1388.4 1072.59 1390.51 1076.34 1394.26C1080.09 1398.01 1082.2 1403.1 1082.2 1408.4C1082.2 1413.7 1080.09 1418.79 1076.34 1422.54C1072.59 1426.29 1067.5 1428.4 1062.2 1428.4Z" fill="#4D4C78"/>
<path d="M889.2 595.5C883.896 595.5 878.809 593.393 875.058 589.642C871.307 585.891 869.2 580.804 869.2 575.5V259.7C869.2 254.396 871.307 249.309 875.058 245.558C878.809 241.807 883.896 239.7 889.2 239.7C894.504 239.7 899.591 241.807 903.342 245.558C907.093 249.309 909.2 254.396 909.2 259.7V575.5C909.174 580.796 907.058 585.868 903.313 589.613C899.568 593.358 894.496 595.474 889.2 595.5V595.5Z" fill="#46A1F8"/>
<path d="M1047.1 437.6H731.3C725.996 437.6 720.909 435.493 717.158 431.742C713.407 427.991 711.3 422.904 711.3 417.6C711.3 412.296 713.407 407.209 717.158 403.458C720.909 399.707 725.996 397.6 731.3 397.6H1047.1C1052.4 397.6 1057.49 399.707 1061.24 403.458C1064.99 407.209 1067.1 412.296 1067.1 417.6C1067.1 422.904 1064.99 427.991 1061.24 431.742C1057.49 435.493 1052.4 437.6 1047.1 437.6Z" fill="#46A1F8"/>
<path d="M1546.9 937.4H1231.1C1225.8 937.4 1220.71 935.293 1216.96 931.542C1213.21 927.791 1211.1 922.704 1211.1 917.4C1211.1 912.096 1213.21 907.009 1216.96 903.258C1220.71 899.507 1225.8 897.4 1231.1 897.4H1546.9C1552.2 897.4 1557.29 899.507 1561.04 903.258C1564.79 907.009 1566.9 912.096 1566.9 917.4C1566.9 922.704 1564.79 927.791 1561.04 931.542C1557.29 935.293 1552.2 937.4 1546.9 937.4Z" fill="#AD06C8"/>
<path d="M1389 833.3C1374.96 833.3 1361.23 829.136 1349.55 821.334C1337.88 813.533 1328.78 802.444 1323.4 789.471C1318.03 776.497 1316.62 762.221 1319.36 748.449C1322.1 734.676 1328.87 722.025 1338.8 712.095C1348.72 702.166 1361.38 695.404 1375.15 692.664C1388.92 689.925 1403.2 691.331 1416.17 696.705C1429.14 702.078 1440.23 711.179 1448.03 722.855C1455.84 734.53 1460 748.258 1460 762.3C1459.97 781.122 1452.48 799.166 1439.18 812.475C1425.87 825.785 1407.82 833.274 1389 833.3V833.3ZM1389 731.3C1382.87 731.3 1376.88 733.118 1371.78 736.524C1366.68 739.931 1362.71 744.772 1360.36 750.437C1358.01 756.101 1357.4 762.334 1358.6 768.348C1359.79 774.361 1362.74 779.885 1367.08 784.22C1371.42 788.556 1376.94 791.508 1382.95 792.704C1388.97 793.901 1395.2 793.287 1400.86 790.94C1406.53 788.594 1411.37 784.621 1414.78 779.523C1418.18 774.425 1420 768.431 1420 762.3C1420 754.078 1416.73 746.193 1410.92 740.38C1405.11 734.566 1397.22 731.3 1389 731.3Z" fill="#AD06C8"/>
<path d="M1389 1143.5C1374.96 1143.5 1361.23 1139.34 1349.55 1131.53C1337.88 1123.73 1328.78 1112.64 1323.4 1099.67C1318.03 1086.7 1316.62 1072.42 1319.36 1058.65C1322.1 1044.88 1328.87 1032.22 1338.8 1022.3C1348.72 1012.37 1361.38 1005.6 1375.15 1002.86C1388.92 1000.12 1403.2 1001.53 1416.17 1006.9C1429.14 1012.28 1440.23 1021.38 1448.03 1033.05C1455.84 1044.73 1460 1058.46 1460 1072.5C1460 1091.33 1452.52 1109.39 1439.2 1122.7C1425.89 1136.02 1407.83 1143.5 1389 1143.5ZM1389 1041.5C1382.87 1041.5 1376.88 1043.32 1371.78 1046.72C1366.68 1050.13 1362.71 1054.97 1360.36 1060.64C1358.01 1066.3 1357.4 1072.53 1358.6 1078.55C1359.79 1084.56 1362.74 1090.08 1367.08 1094.42C1371.42 1098.76 1376.94 1101.71 1382.95 1102.9C1388.97 1104.1 1395.2 1103.49 1400.86 1101.14C1406.53 1098.79 1411.37 1094.82 1414.78 1089.72C1418.18 1084.62 1420 1078.63 1420 1072.5C1420 1064.28 1416.73 1056.39 1410.92 1050.58C1405.11 1044.77 1397.22 1041.5 1389 1041.5V1041.5Z" fill="#AD06C8"/>
<path d="M1567.3 923.3H1251.6C1246.3 923.3 1241.21 921.193 1237.46 917.442C1233.71 913.691 1231.6 908.604 1231.6 903.3C1231.6 897.996 1233.71 892.909 1237.46 889.158C1241.21 885.407 1246.3 883.3 1251.6 883.3H1567.3C1572.6 883.3 1577.69 885.407 1581.44 889.158C1585.19 892.909 1587.3 897.996 1587.3 903.3C1587.3 908.604 1585.19 913.691 1581.44 917.442C1577.69 921.193 1572.6 923.3 1567.3 923.3Z" fill="#4D4C78"/>
<path d="M1409.4 819.2C1395.36 819.2 1381.63 815.036 1369.95 807.234C1358.28 799.433 1349.18 788.344 1343.8 775.371C1338.43 762.397 1337.02 748.121 1339.76 734.349C1342.5 720.576 1349.27 707.925 1359.2 697.995C1369.12 688.066 1381.78 681.304 1395.55 678.564C1409.32 675.825 1423.6 677.231 1436.57 682.605C1449.54 687.978 1460.63 697.079 1468.43 708.755C1476.24 720.43 1480.4 734.158 1480.4 748.2C1480.4 767.03 1472.92 785.09 1459.6 798.405C1446.29 811.72 1428.23 819.2 1409.4 819.2V819.2ZM1409.4 717.2C1403.27 717.2 1397.28 719.018 1392.18 722.424C1387.08 725.831 1383.11 730.672 1380.76 736.337C1378.41 742.001 1377.8 748.234 1379 754.248C1380.19 760.261 1383.14 765.785 1387.48 770.12C1391.82 774.456 1397.34 777.408 1403.35 778.604C1409.37 779.801 1415.6 779.187 1421.26 776.84C1426.93 774.494 1431.77 770.521 1435.18 765.423C1438.58 760.325 1440.4 754.331 1440.4 748.2C1440.4 739.978 1437.13 732.093 1431.32 726.28C1425.51 720.466 1417.62 717.2 1409.4 717.2V717.2Z" fill="#4D4C78"/>
<path d="M1409.4 1129.4C1395.35 1129.4 1381.62 1125.23 1369.94 1117.43C1358.27 1109.62 1349.17 1098.53 1343.8 1085.55C1338.42 1072.57 1337.02 1058.29 1339.77 1044.51C1342.52 1030.74 1349.29 1018.09 1359.23 1008.16C1369.17 998.234 1381.83 991.48 1395.61 988.752C1409.39 986.024 1423.67 987.444 1436.64 992.833C1449.61 998.222 1460.69 1007.34 1468.48 1019.03C1476.27 1030.72 1480.42 1044.45 1480.4 1058.5C1480.37 1077.31 1472.88 1095.35 1459.57 1108.64C1446.26 1121.93 1428.21 1129.4 1409.4 1129.4V1129.4ZM1409.4 1027.5C1403.27 1027.5 1397.28 1029.32 1392.18 1032.72C1387.08 1036.13 1383.11 1040.97 1380.76 1046.64C1378.41 1052.3 1377.8 1058.53 1379 1064.55C1380.19 1070.56 1383.14 1076.08 1387.48 1080.42C1391.82 1084.76 1397.34 1087.71 1403.35 1088.9C1409.37 1090.1 1415.6 1089.49 1421.26 1087.14C1426.93 1084.79 1431.77 1080.82 1435.18 1075.72C1438.58 1070.62 1440.4 1064.63 1440.4 1058.5C1440.4 1050.28 1437.13 1042.39 1431.32 1036.58C1425.51 1030.77 1417.62 1027.5 1409.4 1027.5V1027.5Z" fill="#4D4C78"/>
<path d="M909.7 581.4C907.07 581.413 904.463 580.905 902.031 579.905C899.598 578.904 897.388 577.431 895.528 575.572C893.669 573.712 892.196 571.502 891.195 569.069C890.195 566.637 889.687 564.03 889.7 561.4V245.7C889.7 240.396 891.807 235.309 895.558 231.558C899.309 227.807 904.396 225.7 909.7 225.7C915.004 225.7 920.091 227.807 923.842 231.558C927.593 235.309 929.7 240.396 929.7 245.7V561.4C929.7 566.704 927.593 571.791 923.842 575.542C920.091 579.293 915.004 581.4 909.7 581.4V581.4Z" fill="#4D4C78"/>
<path d="M1067.5 423.6H751.8C746.496 423.6 741.409 421.493 737.658 417.742C733.907 413.991 731.8 408.904 731.8 403.6C731.8 398.296 733.907 393.209 737.658 389.458C741.409 385.707 746.496 383.6 751.8 383.6H1067.5C1072.8 383.6 1077.89 385.707 1081.64 389.458C1085.39 393.209 1087.5 398.296 1087.5 403.6C1087.5 408.904 1085.39 413.991 1081.64 417.742C1077.89 421.493 1072.8 423.6 1067.5 423.6Z" fill="#4D4C78"/>
<path d="M1042.44 112.02C1023.54 93.1183 992.897 93.1183 973.996 112.02C955.094 130.921 955.094 161.566 973.996 180.468L1132.8 339.277C1151.71 358.178 1182.35 358.178 1201.25 339.277C1220.15 320.375 1220.15 289.73 1201.25 270.829L1042.44 112.02Z" fill="#83DEFB"/>
<path d="M1274.33 463.25C1293.23 444.348 1293.23 413.703 1274.33 394.802C1255.43 375.9 1224.78 375.9 1205.88 394.802L1142.01 458.668C1123.11 477.569 1123.11 508.214 1142.01 527.116C1160.92 546.017 1191.56 546.017 1210.46 527.116L1274.33 463.25Z" fill="#83DEFB"/>
<path d="M716.875 1020.68C735.776 1001.78 735.776 971.132 716.875 952.231C697.974 933.33 667.328 933.33 648.427 952.231L584.561 1016.1C565.66 1035 565.66 1065.64 584.561 1084.54C603.462 1103.45 634.108 1103.45 653.009 1084.54L716.875 1020.68Z" fill="#7AFA78"/>
<path d="M1176.59 1254.2C1157.69 1235.3 1127.04 1235.3 1108.14 1254.2C1089.24 1273.1 1089.24 1303.75 1108.14 1322.65L1140.44 1354.95C1159.34 1373.85 1189.99 1373.85 1208.89 1354.95C1227.79 1336.05 1227.79 1305.4 1208.89 1286.5L1176.59 1254.2Z" fill="#F91111"/>
<path d="M1237.48 1491.02C1256.38 1472.12 1256.38 1441.47 1237.48 1422.57C1218.57 1403.67 1187.93 1403.67 1169.03 1422.57L1049.26 1542.34C1030.36 1561.24 1030.36 1591.89 1049.26 1610.79C1068.16 1629.69 1098.8 1629.69 1117.71 1610.79L1237.48 1491.02Z" fill="#F91111"/>
<path d="M1683.54 747.787C1664.64 728.886 1634 728.886 1615.1 747.787C1596.19 766.689 1596.19 797.334 1615.1 816.235L1647.4 848.536C1666.3 867.437 1696.94 867.437 1715.84 848.536C1734.75 829.635 1734.75 798.989 1715.84 780.088L1683.54 747.787Z" fill="#DF1BFF" style="mix-blend-mode:lighten"/>
<path d="M651.894 729.599C632.992 710.697 602.347 710.697 583.446 729.599C564.545 748.5 564.544 779.145 583.446 798.047L615.747 830.347C634.648 849.249 665.293 849.249 684.194 830.347C703.096 811.446 703.096 780.801 684.194 761.899L651.894 729.599Z" fill="#7AFA78"/>
<path d="M1744.29 984.574C1763.19 965.672 1763.19 935.027 1744.29 916.126C1725.39 897.225 1694.74 897.225 1675.84 916.126L1556.07 1035.9C1537.17 1054.8 1537.17 1085.44 1556.07 1104.34C1574.97 1123.25 1605.62 1123.25 1624.52 1104.34L1744.29 984.574Z" fill="#DF1BFF" style="mix-blend-mode:lighten"/>
<path d="M255.5 1298L265.373 1457.34L306.932 1303.26L284.716 1461.34L356.258 1318.83L302.862 1469.17L401.459 1344.06L319.069 1480.52L440.685 1377.94L332.674 1494.91L472.329 1419.06L343.119 1511.77L495.096 1465.74L349.977 1530.39L508.054 1516.08L352.967 1550.03L510.672 1568.02L351.967 1569.86L502.844 1619.42L347.017 1589.09L484.889 1668.18L338.321 1606.93L457.543 1712.31L326.234 1622.63L421.926 1750L311.251 1635.57L379.495 1779.71L293.986 1645.21L331.987 1800.21L275.145 1651.16L281.349 1810.68L255.5 1653.17L229.651 1810.68L235.855 1651.16L179.013 1800.21L217.014 1645.21L131.505 1779.71L199.749 1635.57L89.0743 1750L184.766 1622.63L53.4568 1712.31L172.679 1606.93L26.1109 1668.18L163.983 1589.09L8.1563 1619.42L159.033 1569.86L0.327927 1568.02L158.033 1550.03L2.94635 1516.08L161.023 1530.39L15.9043 1465.74L167.881 1511.77L38.6714 1419.06L178.326 1494.91L70.3154 1377.94L191.931 1480.52L109.541 1344.06L208.138 1469.17L154.742 1318.83L226.284 1461.34L204.068 1303.26L245.627 1457.34L255.5 1298Z" fill="#0EC3FD"/>
<path d="M255.5 0L265.373 159.338L306.932 5.2608L284.716 163.337L356.258 20.8278L302.862 171.17L401.459 46.0638L319.069 182.516L440.685 79.9355L332.674 196.912L472.329 121.056L343.119 213.769L495.096 167.743L349.977 232.395L508.054 218.083L352.967 252.028L510.672 270.017L351.967 271.865L502.844 321.418L347.017 291.093L484.889 370.181L338.321 308.926L457.543 414.311L326.234 324.633L421.926 452.001L311.251 337.57L379.495 481.707L293.986 347.21L331.987 502.214L275.145 353.156L281.349 512.681L255.5 355.165L229.651 512.681L235.855 353.156L179.013 502.214L217.014 347.21L131.505 481.707L199.749 337.57L89.0743 452.001L184.766 324.633L53.4568 414.311L172.679 308.926L26.1109 370.181L163.983 291.093L8.1563 321.418L159.033 271.865L0.327927 270.017L158.033 252.028L2.94635 218.083L161.023 232.395L15.9043 167.743L167.881 213.769L38.6714 121.056L178.326 196.912L70.3154 79.9355L191.931 182.516L109.541 46.0638L208.138 171.17L154.742 20.8278L226.284 163.337L204.068 5.2608L245.627 159.338L255.5 0Z" fill="#E419D0"/>
<path d="M1558.5 0L1568.37 159.338L1609.93 5.2608L1587.72 163.337L1659.26 20.8278L1605.86 171.17L1704.46 46.0638L1622.07 182.516L1743.68 79.9355L1635.67 196.912L1775.33 121.056L1646.12 213.769L1798.1 167.743L1652.98 232.395L1811.05 218.083L1655.97 252.028L1813.67 270.017L1654.97 271.865L1805.84 321.418L1650.02 291.093L1787.89 370.181L1641.32 308.926L1760.54 414.311L1629.23 324.633L1724.93 452.001L1614.25 337.57L1682.49 481.707L1596.99 347.21L1634.99 502.214L1578.15 353.156L1584.35 512.681L1558.5 355.165L1532.65 512.681L1538.85 353.156L1482.01 502.214L1520.01 347.21L1434.51 481.707L1502.75 337.57L1392.07 452.001L1487.77 324.633L1356.46 414.311L1475.68 308.926L1329.11 370.181L1466.98 291.093L1311.16 321.418L1462.03 271.865L1303.33 270.017L1461.03 252.028L1305.95 218.083L1464.02 232.395L1318.9 167.743L1470.88 213.769L1341.67 121.056L1481.33 196.912L1373.32 79.9355L1494.93 182.516L1412.54 46.0638L1511.14 171.17L1457.74 20.8278L1529.28 163.337L1507.07 5.2608L1548.63 159.338L1558.5 0Z" fill="#DE2C2C"/>
<path d="M1558.5 1298L1568.37 1457.34L1609.93 1303.26L1587.72 1461.34L1659.26 1318.83L1605.86 1469.17L1704.46 1344.06L1622.07 1480.52L1743.68 1377.94L1635.67 1494.91L1775.33 1419.06L1646.12 1511.77L1798.1 1465.74L1652.98 1530.39L1811.05 1516.08L1655.97 1550.03L1813.67 1568.02L1654.97 1569.86L1805.84 1619.42L1650.02 1589.09L1787.89 1668.18L1641.32 1606.93L1760.54 1712.31L1629.23 1622.63L1724.93 1750L1614.25 1635.57L1682.49 1779.71L1596.99 1645.21L1634.99 1800.21L1578.15 1651.16L1584.35 1810.68L1558.5 1653.17L1532.65 1810.68L1538.85 1651.16L1482.01 1800.21L1520.01 1645.21L1434.51 1779.71L1502.75 1635.57L1392.07 1750L1487.77 1622.63L1356.46 1712.31L1475.68 1606.93L1329.11 1668.18L1466.98 1589.09L1311.16 1619.42L1462.03 1569.86L1303.33 1568.02L1461.03 1550.03L1305.95 1516.08L1464.02 1530.39L1318.9 1465.74L1470.88 1511.77L1341.67 1419.06L1481.33 1494.91L1373.32 1377.94L1494.93 1480.52L1412.54 1344.06L1511.14 1469.17L1457.74 1318.83L1529.28 1461.34L1507.07 1303.26L1548.63 1457.34L1558.5 1298Z" fill="#20FF1C"/>
</g>
<defs>
<clipPath id="clip0_1_2">
<rect width="1814" height="1812" fill="white"/>
</clipPath>
</defs>
</svg>
